<?xml version="1.0" encoding="UTF-8"?>
<svg version="1.1" xmlns="http://www.w3.org/2000/svg" width="700" height="520">
<path d="M0 0 C231 0 462 0 700 0 C700 171.6 700 343.2 700 520 C469 520 238 520 0 520 C0 348.4 0 176.8 0 0 Z " fill="#FEFEFE" transform="translate(0,0)"/>
<path d="M0 0 C97.02 0 194.04 0 294 0 C294 102.3 294 204.6 294 310 C196.98 310 99.96 310 0 310 C0 297.79 0 285.58 0 273 C-5.28 272.67 -10.56 272.34 -16 272 C-19.4240394 271.37129928 -22.60934927 270.72712802 -25.9375 269.8125 C-26.77466553 269.59110352 -27.61183105 269.36970703 -28.47436523 269.14160156 C-58.74420145 260.92758981 -85.67837814 246.35427805 -108.7421875 225.0703125 C-110.76475254 223.21571134 -112.83483984 221.44964839 -114.9375 219.6875 C-136.17511343 201.0939268 -151.7569518 175.89308436 -164.8125 151.1875 C-165.26866699 150.32833984 -165.72483398 149.46917969 -166.19482422 148.58398438 C-168.40495513 144.34457366 -170.49176954 140.0659229 -172.38671875 135.67578125 C-172.72276123 134.89759033 -173.05880371 134.11939941 -173.4050293 133.31762695 C-174.13026508 130.4925702 -173.87277739 128.76782771 -173 126 C-170.77734375 123.7890625 -170.77734375 123.7890625 -167.9375 121.625 C-167.01839844 120.91601562 -166.09929687 120.20703125 -165.15234375 119.4765625 C-164.65299316 119.09258301 -164.15364258 118.70860352 -163.63916016 118.31298828 C-161.77313085 116.81827491 -159.99339276 115.24526279 -158.20703125 113.65625 C-122.10411753 81.83166192 -76.64298881 57.6209882 -30 46 C-28.79085937 45.69191406 -27.58171875 45.38382813 -26.3359375 45.06640625 C-17.32867112 42.94166734 -9.52147679 42.5950923 0 42 C0 28.14 0 14.28 0 0 Z " fill="#77B902" transform="translate(240,17)"/>
<path d="M0 0 C96.36 0 192.72 0 292 0 C292 101.97 292 203.94 292 309 C195.64 309 99.28 309 0 309 C0 297.45 0 285.9 0 274 C17.3125 273.625 17.3125 273.625 22.6418457 273.52197266 C40.04631162 273.13138384 57.06900895 271.10619555 74.1875 268 C75.01060669 267.85138519 75.83371338 267.70277039 76.6817627 267.5496521 C117.57390024 260.09589415 156.71574137 248.15822929 195 232 C195.86012695 231.64405762 196.72025391 231.28811523 197.60644531 230.92138672 C217.59451487 222.61169642 240.83743297 211.75506521 256 196 C245.51125513 188.78021385 234.40980953 182.7168319 223.2199707 176.67382812 C212.95671694 171.10510884 212.95671694 171.10510884 208.87109375 167.953125 C206.29818097 165.7449253 206.29818097 165.7449253 204.00561523 166.23193359 C200.66908454 167.50968473 198.24791412 170.01819972 195.625 172.375 C194.36259315 173.48135682 193.09822009 174.58547355 191.83203125 175.6875 C190.87031006 176.52474609 190.87031006 176.52474609 189.88916016 177.37890625 C184.75291301 181.78633466 179.38093005 185.89800003 174 190 C173.30310059 190.53351074 172.60620117 191.06702148 171.88818359 191.61669922 C146.93797366 210.6297798 119.91601873 228.00461273 90 238 C88.7449579 238.48273434 87.49111365 238.96859079 86.23828125 239.45703125 C61.45745408 248.79916279 26.33952385 255.58488096 0 249 C0 240.75 0 232.5 0 224 C2.02898437 224.03480469 4.05796875 224.06960937 6.1484375 224.10546875 C49.37463463 224.63313749 85.00038558 211.38008849 120 186 C120.68368652 185.50709473 121.36737305 185.01418945 122.07177734 184.50634766 C129.87438475 178.85568229 137.35799187 173.06228727 144.375 166.44921875 C146.39717064 164.56246132 148.4425673 162.76044908 150.54296875 160.96484375 C155.8153408 156.370242 160.75043221 151.43562242 165.69262695 146.49267578 C167.32160371 144.86590864 168.95845662 143.24734506 170.59570312 141.62890625 C171.64371746 140.58382277 172.69126059 139.5382665 173.73828125 138.4921875 C174.46486687 137.77638016 174.46486687 137.77638016 175.20613098 137.04611206 C177.987264 134.24615075 180.11684341 131.46796025 182 128 C173.6277386 117.31244656 164.43944355 107.70525967 154 99 C153.484375 98.55994629 152.96875 98.11989258 152.4375 97.66650391 C141.25184155 88.13809564 129.40740008 79.85989145 117 72 C116.02981934 71.38318359 116.02981934 71.38318359 115.04003906 70.75390625 C94.54713017 57.90726398 70.62435748 49.75270264 47 45 C46.29391602 44.85433594 45.58783203 44.70867188 44.86035156 44.55859375 C29.98487433 41.57947246 15.14443193 41.36937639 0 41 C0 27.47 0 13.94 0 0 Z " fill="#77B900" transform="translate(241,17)"/>
<path d="M0 0 C9.838125 -0.061875 19.67625 -0.12375 29.8125 -0.1875 C34.40828979 -0.22846802 34.40828979 -0.22846802 39.09692383 -0.27026367 C84.07078929 -0.50602906 84.07078929 -0.50602906 100.0390625 14.828125 C103.44267961 18.59786825 105.84307657 22.40562843 108 27 C108.48726563 28.00160156 108.97453125 29.00320313 109.4765625 30.03515625 C113.33112179 39.75768988 113.47981064 49.48678226 113.5 59.8125 C113.50449158 60.52737579 113.50898315 61.24225159 113.51361084 61.97879028 C113.55153499 76.8550717 110.84509449 91.88729598 100.82421875 103.52734375 C87.82122181 115.58711812 71.76491831 116.4723597 54.8828125 116.29296875 C53.46737017 116.28854199 52.05192287 116.28549129 50.63647461 116.28381348 C45.46590677 116.268269 40.29544498 116.22638674 35.125 116.1875 C17.738125 116.0946875 17.738125 116.0946875 0 116 C0 77.72 0 39.44 0 0 Z " fill="#040404" transform="translate(336,382)"/>
<path d="M0 0 C0 7.26 0 14.52 0 22 C-2.18625 22.391875 -4.3725 22.78375 -6.625 23.1875 C-22.84528315 26.2135955 -38.80181439 29.42997083 -54 36 C-55.02552979 36.43868408 -55.02552979 36.43868408 -56.07177734 36.88623047 C-81.66701457 47.98317863 -109.2746479 66.41197185 -125 90 C-124.6262402 96.05987224 -122.04671515 101.90997497 -119.5625 107.375 C-119.21687012 108.14102539 -118.87124023 108.90705078 -118.51513672 109.69628906 C-108.96899455 130.33003032 -96.19266005 148.20756226 -81 165 C-80.33742188 165.74765625 -79.67484375 166.4953125 -78.9921875 167.265625 C-57.83289328 189.84819014 -29.65166881 201.06966624 0 207 C0 214.92 0 222.84 0 231 C-40.51952362 229.87445768 -79.32202075 210.22011268 -108.7421875 183.0703125 C-110.76475254 181.21571134 -112.83483984 179.44964839 -114.9375 177.6875 C-136.17511343 159.0939268 -151.7569518 133.89308436 -164.8125 109.1875 C-165.26866699 108.32833984 -165.72483398 107.46917969 -166.19482422 106.58398438 C-168.40495513 102.34457366 -170.49176954 98.0659229 -172.38671875 93.67578125 C-172.72276123 92.89759033 -173.05880371 92.11939941 -173.4050293 91.31762695 C-174.13026508 88.4925702 -173.87277739 86.76782771 -173 84 C-170.77734375 81.7890625 -170.77734375 81.7890625 -167.9375 79.625 C-167.01839844 78.91601562 -166.09929687 78.20703125 -165.15234375 77.4765625 C-164.65299316 77.09258301 -164.15364258 76.70860352 -163.63916016 76.31298828 C-161.77313085 74.81827491 -159.99339276 73.24526279 -158.20703125 71.65625 C-117.32118768 35.61552652 -56.09584588 0 0 0 Z " fill="#77B902" transform="translate(240,59)"/>
<path d="M0 0 C32.27876231 0.43387863 62.53533124 14.58682785 87.46386719 34.3828125 C88.02412598 34.82737793 88.58438477 35.27194336 89.16162109 35.72998047 C97.82523349 42.6816976 105.86781367 50.27948829 113.46386719 58.3828125 C113.9653125 58.90407715 114.46675781 59.4253418 114.98339844 59.96240234 C118.45708569 63.77699899 118.45708569 63.77699899 118.48730469 66.4765625 C101.44727313 98.21524723 61.69055569 127.98461761 27.65136719 138.8828125 C14.64855648 142.76262286 -0.40627343 143.24313413 -13.53613281 139.3828125 C-16.07175565 136.84718966 -15.77157585 135.26075508 -15.78497314 131.80322266 C-15.77778259 131.02495117 -15.77059204 130.24667969 -15.76318359 129.44482422 C-15.76347565 128.62523224 -15.7637677 127.80564026 -15.7640686 126.96121216 C-15.76267225 124.24486807 -15.74709682 121.52879632 -15.73144531 118.8125 C-15.72771626 116.93205922 -15.72486878 115.05161651 -15.72286987 113.1711731 C-15.71522489 108.21615252 -15.695569 103.26124876 -15.67346191 98.30627441 C-15.65302209 93.2523761 -15.64387215 88.19845896 -15.63378906 83.14453125 C-15.6123239 73.22390695 -15.57817755 63.30336943 -15.53613281 53.3828125 C-13.9338205 53.5308053 -12.33182873 53.68227132 -10.72998047 53.83520508 C-9.83783844 53.91918045 -8.94569641 54.00315582 -8.02651978 54.0896759 C0.31984462 55.07210349 7.24511285 58.91137628 13.46386719 64.3828125 C14.02332031 64.84945312 14.58277344 65.31609375 15.15917969 65.796875 C23.93508699 73.75641884 31.05744466 85.943582 36.46386719 96.3828125 C36.46386719 97.0428125 36.46386719 97.7028125 36.46386719 98.3828125 C41.04466532 95.89211237 44.71453821 92.69692932 48.58886719 89.2578125 C53.98068032 84.52408383 59.43483441 79.91034877 65.01074219 75.39453125 C68.57031754 72.47545274 72.02734952 69.44515346 75.46386719 66.3828125 C69.03461702 51.75298813 48.65139696 41.10480082 34.46386719 35.3828125 C24.85632724 31.95346886 15.20760318 29.4076037 4.97167969 29.06640625 C3.77285156 29.02451172 2.57402344 28.98261719 1.33886719 28.93945312 C0.10136719 28.90013672 -1.13613281 28.86082031 -2.41113281 28.8203125 C-3.67183594 28.77712891 -4.93253906 28.73394531 -6.23144531 28.68945312 C-9.33290704 28.58372148 -12.43444426 28.48162679 -15.53613281 28.3828125 C-15.5649962 23.90365922 -15.58288469 19.42452959 -15.59863281 14.9453125 C-15.60701172 13.66591797 -15.61539063 12.38652344 -15.62402344 11.06835938 C-15.62724609 9.85341797 -15.63046875 8.63847656 -15.63378906 7.38671875 C-15.63902588 6.26080322 -15.6442627 5.1348877 -15.6496582 3.97485352 C-15.36921714 -2.42824925 -4.88105152 0.01117905 0 0 Z " fill="#77B902" transform="translate(256.5361328125,80.6171875)"/>
<path d="M0 0 C20.61584665 -0.53470496 39.92420609 -0.46207656 60 5 C60.77311523 5.20818359 61.54623047 5.41636719 62.34277344 5.63085938 C66.96226461 6.90933924 71.48045503 8.39922797 76 10 C76.64694824 10.22268555 77.29389648 10.44537109 77.96044922 10.67480469 C88.41782937 14.28712261 98.2449709 18.79297445 108 24 C109.16144531 24.61617187 110.32289063 25.23234375 111.51953125 25.8671875 C128.36854972 35.14858968 143.46947374 46.94527986 157.65625 59.875 C159.80692711 61.82494724 161.98824971 63.73026129 164.1875 65.625 C171.27885173 71.83526194 177.22501811 78.54502338 183 86 C177.86593898 93.49067919 171.60785657 99.69651325 165.1887207 106.07202148 C163.32726921 107.92281535 161.4766737 109.78397488 159.62695312 111.64648438 C153.4685962 117.81152985 147.25947191 123.6809302 140.40966797 129.08007812 C137.79955011 131.15971003 135.30892885 133.34827186 132.8125 135.5625 C100.87040834 162.21561429 60.54676312 183.08844555 18.3125 183.3125 C17.29647705 183.31813965 16.2804541 183.3237793 15.23364258 183.32958984 C9.48903756 183.27316236 5.76079168 182.64594048 0 181 C0 174.07 0 167.14 0 160 C1.918125 160.33 3.83625 160.66 5.8125 161 C36.62250462 165.21121671 62.02608113 154.76504497 86.4375 136.25 C102.42622769 123.85134471 117.74571515 109.11368031 130 93 C130.59167969 92.32453125 131.18335938 91.6490625 131.79296875 90.953125 C133.22461951 89.10156489 133.22461951 89.10156489 132.72802734 87.0625 C131.52294971 83.6485175 128.90172077 81.31698972 126.4375 78.75 C125.88884277 78.17008301 125.34018555 77.59016602 124.77490234 76.99267578 C123.67984055 75.83904765 122.58128047 74.68872867 121.47900391 73.54199219 C120.28003383 72.29196 119.09656617 71.02707126 117.91796875 69.7578125 C89.38457772 39.7946437 49.00016469 23.12599758 8.07592773 22.10009766 C5.38417478 22.0519976 2.69207828 22.02370926 0 22 C0 14.74 0 7.48 0 0 Z " fill="#FDFEFC" transform="translate(241,59)"/>
<path d="M0 0 C0.77943466 0.00222061 1.55886932 0.00444122 2.36192322 0.00672913 C3.24276077 0.00680466 4.12359833 0.00688019 5.03112793 0.00695801 C5.98841293 0.01211929 6.94569794 0.01728058 7.93199158 0.02259827 C9.39480812 0.02472069 9.39480812 0.02472069 10.88717651 0.02688599 C14.01542675 0.03250319 17.14360656 0.04505859 20.27183533 0.05775452 C22.38706867 0.0627673 24.50230313 0.06733059 26.61753845 0.07142639 C31.81482829 0.0824782 37.01207678 0.09923305 42.20933533 0.12025452 C47.20299788 11.32809246 51.88375264 22.6316284 56.39292908 34.04212952 C57.05853347 35.72022897 57.72439732 37.39822553 58.39050293 39.0761261 C60.12749406 43.45343037 61.86119986 47.83202798 63.59410095 52.21095276 C65.6799717 57.48004997 67.76972538 62.74760808 69.85895729 68.01537323 C71.52795642 72.22382931 73.19622242 76.43257184 74.86250305 80.6421051 C77.54646051 87.4208406 80.23322888 94.19797904 82.96372986 100.95814514 C83.34892288 101.9126355 83.73411591 102.86712585 84.13098145 103.85054016 C84.80339663 105.51258563 85.47869045 107.17347122 86.15768433 108.83283997 C88.20933533 113.9016812 88.20933533 113.9016812 88.20933533 116.12025452 C76.65933533 116.12025452 65.10933533 116.12025452 53.20933533 116.12025452 C50.70263931 109.85351448 48.34371007 103.52337875 46.20933533 97.12025452 C28.05933533 96.79025452 9.90933533 96.46025452 -8.79066467 96.12025452 C-9.45066467 99.09025452 -10.11066467 102.06025452 -10.79066467 105.12025452 C-12.11066467 108.75025452 -13.43066467 112.38025452 -14.79066467 116.12025452 C-25.68066467 116.12025452 -36.57066467 116.12025452 -47.79066467 116.12025452 C-43.06352038 102.20144076 -37.63288088 88.59712721 -32.1394043 74.9683075 C-29.46467441 68.32540023 -26.84148528 61.66254228 -24.22816467 54.99525452 C-23.78303528 53.86047668 -23.33790588 52.72569885 -22.87928772 51.55653381 C-21.02564437 46.82875461 -19.1741346 42.10014153 -17.32337952 37.37123108 C-16.33404386 34.84346762 -15.34403957 32.31596773 -14.35340881 29.78871155 C-13.42826071 27.42816215 -12.50418303 25.06719281 -11.58143616 22.70570374 C-2.75354347 0.18491795 -2.75354347 0.18491795 0 0 Z " fill="#010101" transform="translate(558.7906646728516,381.87974548339844)"/>
<path d="M0 0 C3.43365657 1.22271074 6.44830295 3.21711622 9.54858398 5.10449219 C16.07037331 9.01827816 22.67142912 12.73589335 29.36108398 16.35449219 C46.14921141 25.50726867 46.14921141 25.50726867 51.04858398 29.72949219 C51.04858398 30.71949219 51.04858398 31.70949219 51.04858398 32.72949219 C26.28452936 56.86660872 -14.16944977 70.32422832 -45.95141602 81.72949219 C-46.85778809 82.06158691 -47.76416016 82.39368164 -48.69799805 82.73583984 C-77.13136809 93.09632311 -107.13017766 99.82197308 -136.95141602 104.72949219 C-137.9774292 104.90335449 -139.00344238 105.0772168 -140.06054688 105.25634766 C-155.62043414 107.88759336 -170.75013384 108.91818724 -186.51391602 108.91699219 C-187.30992218 108.91789856 -188.10592834 108.91880493 -188.92605591 108.91973877 C-191.20673881 108.91944477 -193.48717994 108.91053102 -195.76782227 108.89746094 C-196.46282837 108.89625748 -197.15783447 108.89505402 -197.87390137 108.89381409 C-202.71799207 108.84620416 -202.71799207 108.84620416 -204.95141602 107.72949219 C-204.95141602 100.13949219 -204.95141602 92.54949219 -204.95141602 84.72949219 C-202.53571289 84.69210937 -200.12000977 84.65472656 -197.63110352 84.61621094 C-165.24814076 84.04311192 -133.89940507 81.22491458 -103.95141602 67.72949219 C-102.9760791 67.29121094 -102.00074219 66.85292969 -100.99584961 66.40136719 C-73.41221955 53.79067534 -48.47875555 37.83618407 -24.95141602 18.72949219 C-24.00137695 17.96121094 -23.05133789 17.19292969 -22.07250977 16.40136719 C-18.24874896 13.29014218 -14.44219598 10.17339095 -10.74438477 6.91308594 C-9.93638428 6.21131226 -9.93638428 6.21131226 -9.11206055 5.49536133 C-7.59345584 4.17371589 -6.08654237 2.83867215 -4.58032227 1.50292969 C-1.95141602 -0.27050781 -1.95141602 -0.27050781 0 0 Z " fill="#FDFEFC" transform="translate(445.951416015625,182.2705078125)"/>
<path d="M0 0 C18.43875 -0.0928125 18.43875 -0.0928125 37.25 -0.1875 C41.10848633 -0.21481201 44.96697266 -0.24212402 48.94238281 -0.27026367 C53.71240234 -0.28381348 53.71240234 -0.28381348 55.95672607 -0.28633118 C57.4995586 -0.29088988 59.04238152 -0.30133938 60.58514404 -0.31672668 C76.40229023 -0.46637872 91.87026318 1.57180453 104.48828125 12.0703125 C117.09512591 25.31818316 117.31188062 42.13422472 117.1953125 59.359375 C117.1915733 61.00132066 117.18873063 62.64326858 117.18673706 64.28521729 C117.17917187 68.56606418 117.15958625 72.84677113 117.1373291 77.12756348 C117.11307898 82.28563547 117.10405575 87.44375476 117.09242249 92.60186768 C117.07315632 100.40134186 117.03478464 108.20051018 117 116 C106.44 116 95.88 116 85 116 C84.96261719 111.50761719 84.92523438 107.01523437 84.88671875 102.38671875 C84.8563996 99.52014584 84.82522619 96.65363207 84.79101562 93.78710938 C84.73693916 89.24930006 84.68582149 84.71160772 84.65356445 80.17358398 C84.62732308 76.50993926 84.58677875 72.84669333 84.53681374 69.18329811 C84.52028437 67.79410624 84.50868422 66.40484562 84.50238609 65.01556969 C84.44931941 54.37394882 84.08466895 43.54327726 77 35 C65.38601874 23.99728091 47.75563399 28.44714042 33 28 C33 57.04 33 86.08 33 116 C22.11 116 11.22 116 0 116 C0 77.72 0 39.44 0 0 Z " fill="#000000" transform="translate(25,382)"/>
<path d="M0 0 C0 8.91 0 17.82 0 27 C-5.8471875 28.2684375 -5.8471875 28.2684375 -11.8125 29.5625 C-39.34035157 35.80912531 -63.66910216 47.23015782 -85 66 C-86.45599609 67.12341797 -86.45599609 67.12341797 -87.94140625 68.26953125 C-90.45020706 70.93968177 -90.45020706 70.93968177 -89.5390625 74.76953125 C-89.06483857 76.19320351 -88.54962318 77.60370297 -88 79 C-87.73413086 79.69915527 -87.46826172 80.39831055 -87.19433594 81.11865234 C-86.30662826 83.33489182 -85.35642085 85.51119276 -84.375 87.6875 C-84.02091064 88.47350586 -83.66682129 89.25951172 -83.30200195 90.06933594 C-70.25110768 118.41898716 -48.18481145 141.37722899 -18.92822266 152.80957031 C-12.67966791 155.11159166 -6.5907844 156.90153593 0 158 C0 166.58 0 175.16 0 184 C-6.54559028 183.34544097 -12.28319609 182.69708007 -18.5 180.9375 C-19.6461377 180.61313965 -19.6461377 180.61313965 -20.81542969 180.28222656 C-39.28004364 174.80703429 -55.39781196 165.49190505 -70 153 C-70.79664063 152.32582031 -71.59328125 151.65164062 -72.4140625 150.95703125 C-88.76490808 136.70843725 -101.358806 119.80369659 -112 101 C-112.35191406 100.38656738 -112.70382813 99.77313477 -113.06640625 99.14111328 C-117.10067054 92.06812502 -120.62986324 84.91444299 -123.5625 77.3125 C-123.82635498 76.640979 -124.09020996 75.96945801 -124.36206055 75.27758789 C-125.28890577 72.75856073 -126.02691285 70.5662049 -125.8984375 67.86328125 C-119.76724348 55.147718 -105.95678578 44.43831719 -95 36 C-94.4848584 35.60312988 -93.9697168 35.20625977 -93.43896484 34.79736328 C-66.93208118 14.59057353 -33.72069783 0 0 0 Z " fill="#FDFEFB" transform="translate(240,82)"/>
<path d="M0 0 C11.88 0 23.76 0 36 0 C39.70784667 11.95591376 43.30051491 23.89850907 46.5 36 C48.97132805 45.34230054 51.64358143 54.59700584 54.50024414 63.82836914 C57.17958709 72.50430037 59.62580498 81.23626632 62 90 C62.35396851 88.77990234 62.35396851 88.77990234 62.71508789 87.53515625 C63.04758545 86.38917969 63.38008301 85.24320312 63.72265625 84.0625 C63.99386543 83.12772827 63.99386543 83.12772827 64.27055359 82.17407227 C65.27961209 78.69657603 66.28923976 75.21924629 67.29980469 71.7421875 C67.7168067 70.30729452 68.13379885 68.87239868 68.55078125 67.4375 C68.75927704 66.72005615 68.96777283 66.0026123 69.18258667 65.26342773 C70.45420147 60.88556836 71.71957767 56.50596313 72.98046875 52.125 C75.75790005 42.49862438 78.62636998 32.95138924 81.875 23.47265625 C83.50256713 18.448673 84.81200554 13.36099935 86.10546875 8.2421875 C87 5 87 5 89 0 C100.22 0 111.44 0 123 0 C117.73854625 18.6542451 111.76353167 36.98895911 105.56835938 55.34765625 C103.26777312 62.16717459 100.98571202 68.99286849 98.70739746 75.81985474 C98.02430641 77.864737 97.33898027 79.90885879 96.65332031 81.95288086 C94.34917489 88.83950174 92.13204206 95.73975623 90.08984375 102.70922852 C88.59837753 107.21269474 86.76188299 111.59529253 85 116 C69.16 116 53.32 116 37 116 C12.82434811 41.6209569 12.82434811 41.6209569 5 16.9375 C4.73160309 16.0922879 4.46320618 15.24707581 4.18667603 14.37625122 C3.45588387 12.07304398 2.72731939 9.76914967 2 7.46484375 C1.608125 6.223396 1.21625 4.98194824 0.8125 3.70288086 C0 1 0 1 0 0 Z " fill="#010101" transform="translate(147,382)"/>
<path d="M0 0 C10.89 0 21.78 0 33 0 C33 38.61 33 77.22 33 117 C22.11 117 11.22 117 0 117 C0 78.39 0 39.78 0 0 Z " fill="#030303" transform="translate(465,382)"/>
<path d="M0 0 C10.89 0 21.78 0 33 0 C33 38.28 33 76.56 33 116 C22.11 116 11.22 116 0 116 C0 77.72 0 39.44 0 0 Z " fill="#010101" transform="translate(284,382)"/>
<path d="M0 0 C30.11222979 -0.60527095 30.11222979 -0.60527095 44 4 C44.94093506 4.30550781 44.94093506 4.30550781 45.90087891 4.6171875 C62.4198174 10.11925491 75.77040571 19.80616476 88 32 C89.16789062 33.16402344 89.16789062 33.16402344 90.359375 34.3515625 C90.90078125 34.89554688 91.4421875 35.43953125 92 36 C88.56121928 44.27166172 78.80737905 50.04341174 72.015625 55.515625 C69.74004276 57.39032746 67.51069473 59.28903495 65.296875 61.234375 C64.6668457 61.78569092 64.03681641 62.33700684 63.38769531 62.9050293 C62.14729294 63.99415135 60.9120769 65.08921402 59.68261719 66.19067383 C55.33228862 70 55.33228862 70 52 70 C50.68481445 68.32275391 50.68481445 68.32275391 49.36328125 65.9765625 C48.62718628 64.69894043 48.62718628 64.69894043 47.8762207 63.39550781 C47.36019287 62.48124023 46.84416504 61.56697266 46.3125 60.625 C38.14970848 46.62322985 29.35077183 32.76705601 13 28 C8.68050758 26.89378853 4.36347881 25.92839975 0 25 C0 16.75 0 8.5 0 0 Z " fill="#FDFEFC" transform="translate(241,109)"/>
<path d="M0 0 C0 27.72 0 55.44 0 84 C-21.84529946 76.71823351 -36.66976087 60.08379015 -47 40 C-53.05979612 27.63841371 -53.05979612 27.63841371 -52.921875 23.859375 C-47.79545152 13.5196395 -32.73275315 6.42587886 -22.6875 2 C-16 0 -16 0 0 0 Z " fill="#FDFEFC" transform="translate(240,134)"/>
<path d="M0 0 C30.78142202 0 30.78142202 0 40.05078125 8.81640625 C47.98775951 17.70773059 47.46382664 28.6606592 47 40 C46.16669902 47.53542174 42.5155243 53.36468883 37.375 58.75 C25.87423273 67.16867579 14.67417562 65 0 65 C0 43.55 0 22.1 0 0 Z " fill="#FEFEFE" transform="translate(370,408)"/>
<path d="M0 0 C2.638739 2.638739 3.42907403 5.61453186 4.609375 9.0703125 C4.8586676 9.78420135 5.10796021 10.49809021 5.36480713 11.23361206 C6.16532432 13.52888733 6.95803601 15.82676103 7.75 18.125 C8.78370351 21.10773273 9.82096169 24.08921658 10.859375 27.0703125 C11.11489136 27.8064679 11.37040771 28.54262329 11.63366699 29.30108643 C13.7114238 35.25626911 15.90901077 41.16205468 18.18450928 47.04446411 C20 51.78879628 20 51.78879628 20 54 C6.8 54 -6.4 54 -20 54 C-17.97691794 47.25639312 -15.86501706 40.77907663 -13.3125 34.25 C-9.92568969 25.49164 -6.68032528 16.68969382 -3.52661133 7.84472656 C-3.20974365 6.96268555 -2.89287598 6.08064453 -2.56640625 5.171875 C-2.28740479 4.3890918 -2.00840332 3.60630859 -1.72094727 2.79980469 C-1 1 -1 1 0 0 Z " fill="#F5F5F5" transform="translate(578,404)"/>
<path d="M0 0 C0.33 0 0.66 0 1 0 C1 13.53 1 27.06 1 41 C10.24 41 19.48 41 29 41 C29 41.33 29 41.66 29 42 C19.76 42 10.52 42 1 42 C1.16226074 45.1457959 1.32452148 48.2915918 1.49169922 51.53271484 C2.14884991 65.78685352 2.14743839 80.03887524 2.1343255 94.30478334 C2.13173926 98.01710353 2.13415634 101.72942163 2.13571167 105.44174194 C2.13751506 111.66591851 2.13517527 117.89008308 2.13037109 124.11425781 C2.12492724 131.24830924 2.12669951 138.38233207 2.1321975 145.51638281 C2.13677565 151.7116058 2.13735659 157.90682032 2.13475883 164.10204446 C2.13322225 167.77164386 2.1329285 171.44122993 2.13629532 175.1108284 C2.14903171 191.10167803 1.97748071 207.03522492 1 223 C1.66 223.33 2.32 223.66 3 224 C2.34 224 1.68 224 1 224 C1 232.25 1 240.5 1 249 C2.32 249.33 3.64 249.66 5 250 C3.68 250 2.36 250 1 250 C1 257.59 1 265.18 1 273 C1.66 273.33 2.32 273.66 3 274 C2.34 274 1.68 274 1 274 C1 285.55 1 297.1 1 309 C97.36 309 193.72 309 293 309 C293 207.03 293 105.06 293 0 C293.33 0 293.66 0 294 0 C294 102.3 294 204.6 294 310 C196.98 310 99.96 310 0 310 C0 246.31 0 182.62 0 117 C-3.96 117 -7.92 117 -12 117 C-12 116.67 -12 116.34 -12 116 C-8.04 116 -4.08 116 0 116 C0 108.41 0 100.82 0 93 C-0.99 92.67 -1.98 92.34 -3 92 C-2.01 92 -1.02 92 0 92 C0 83.09 0 74.18 0 65 C-0.99 64.67 -1.98 64.34 -3 64 C-2.01 64 -1.02 64 0 64 C0 42.88 0 21.76 0 0 Z " fill="#97CA42" transform="translate(240,17)"/>
<path d="M0 0 C3.0603333 1.7655769 5.50587755 3.50587755 8 6 C8.43332499 11.28656491 8.50513984 14.74375877 5 19 C1.98997559 21.34113009 -1.27741542 21.41216607 -5.03125 21.328125 C-8.14316604 20.80947233 -9.85067869 19.21445226 -12 17 C-13.73631636 13.52736727 -13.60190402 9.78806987 -13 6 C-9.08606917 1.05608737 -6.27104539 -0.60298513 0 0 Z " fill="#0C0C0C" transform="translate(667,481)"/>
<path d="M0 0 C0.33 0 0.66 0 1 0 C1 13.53 1 27.06 1 41 C10.24 41 19.48 41 29 41 C29 41.33 29 41.66 29 42 C19.76 42 10.52 42 1 42 C1.16226074 45.1457959 1.32452148 48.2915918 1.49169922 51.53271484 C2.14884991 65.78685352 2.14743839 80.03887524 2.1343255 94.30478334 C2.13173926 98.01710353 2.13415634 101.72942163 2.13571167 105.44174194 C2.13751506 111.66591851 2.13517527 117.89008308 2.13037109 124.11425781 C2.12492724 131.24830924 2.12669951 138.38233207 2.1321975 145.51638281 C2.13677565 151.7116058 2.13735659 157.90682032 2.13475883 164.10204446 C2.13322225 167.77164386 2.1329285 171.44122993 2.13629532 175.1108284 C2.14903171 191.10167803 1.97748071 207.03522492 1 223 C1.66 223.33 2.32 223.66 3 224 C2.34 224 1.68 224 1 224 C1 232.25 1 240.5 1 249 C2.32 249.33 3.64 249.66 5 250 C3.68 250 2.36 250 1 250 C1 257.59 1 265.18 1 273 C0.67 273 0.34 273 0 273 C0 221.52 0 170.04 0 117 C-3.96 117 -7.92 117 -12 117 C-12 116.67 -12 116.34 -12 116 C-8.04 116 -4.08 116 0 116 C0 108.41 0 100.82 0 93 C-0.99 92.67 -1.98 92.34 -3 92 C-2.01 92 -1.02 92 0 92 C0 83.09 0 74.18 0 65 C-0.99 64.67 -1.98 64.34 -3 64 C-2.01 64 -1.02 64 0 64 C0 42.88 0 21.76 0 0 Z " fill="#A3D056" transform="translate(240,17)"/>
<path d="M0 0 C3.0603333 1.7655769 5.50587755 3.50587755 8 6 C8.43332499 11.28656491 8.50513984 14.74375877 5 19 C1.98997559 21.34113009 -1.27741542 21.41216607 -5.03125 21.328125 C-8.14316604 20.80947233 -9.85067869 19.21445226 -12 17 C-13.73631636 13.52736727 -13.60190402 9.78806987 -13 6 C-9.08606917 1.05608737 -6.27104539 -0.60298513 0 0 Z M-8.375 4.5625 C-10.6085569 7.91283535 -10.49398209 10.0481433 -10 14 C-9.02896212 16.46186579 -9.02896212 16.46186579 -7 18 C-4.1403994 19.17110449 -4.1403994 19.17110449 -1 19 C2.77130118 16.98863937 3.79172189 15.63640532 5.125 11.5625 C5.32041984 7.88838909 5.32041984 7.88838909 2.9375 5.0625 C0.16364884 2.80986035 0.16364884 2.80986035 -3.0625 2.4375 C-6.04892256 2.81513945 -6.04892256 2.81513945 -8.375 4.5625 Z " fill="#121212" transform="translate(667,481)"/>
<path d="M0 0 C0.33 0 0.66 0 1 0 C1 13.53 1 27.06 1 41 C10.24 41 19.48 41 29 41 C29 41.33 29 41.66 29 42 C19.76 42 10.52 42 1 42 C1.17402344 45.23941406 1.34804687 48.47882813 1.52734375 51.81640625 C2.15942154 65.20615301 1.89882028 78.54313755 1.5625 91.9375 C1.50907417 94.28969794 1.45633662 96.64191161 1.40429688 98.99414062 C1.27742341 104.66296547 1.14221524 110.33154031 1 116 C0.67 116 0.34 116 0 116 C0 108.41 0 100.82 0 93 C-0.99 92.67 -1.98 92.34 -3 92 C-2.01 92 -1.02 92 0 92 C0 83.09 0 74.18 0 65 C-0.99 64.67 -1.98 64.34 -3 64 C-2.01 64 -1.02 64 0 64 C0 42.88 0 21.76 0 0 Z " fill="#A9D361" transform="translate(240,17)"/>
<path d="M0 0 C0.33 0 0.66 0 1 0 C1 3.63 1 7.26 1 11 C1.99 11 2.98 11 4 11 C4.33 9.68 4.66 8.36 5 7 C5.99 8.485 5.99 8.485 7 10 C7.99 10.66 8.98 11.32 10 12 C7 14 7 14 4 13.875 C1 13 1 13 -0.875 11.375 C-2.42263996 8.10776009 -2.33030318 5.56727433 -2 2 C-1.34 1.34 -0.68 0.68 0 0 Z " fill="#F0F0F0" transform="translate(659,486)"/>
<path d="M0 0 C3.99514406 -0.46455163 5.59149623 -0.28682179 8.9375 2.0625 C11 5 11 5 10.8125 8.8125 C10.544375 9.864375 10.27625 10.91625 10 12 C9.01 12 8.02 12 7 12 C6.67 10.68 6.34 9.36 6 8 C6.66 8 7.32 8 8 8 C8 6.35 8 4.7 8 3 C5.03 2.67 2.06 2.34 -1 2 C-0.67 1.34 -0.34 0.68 0 0 Z " fill="#DEDEDE" transform="translate(661,484)"/>
<path d="M0 0 C0 1.65 0 3.3 0 5 C-0.66 5 -1.32 5 -2 5 C-1.34 6.65 -0.68 8.3 0 10 C-1.875 9.8125 -1.875 9.8125 -4 9 C-5.52164099 6.10888212 -6 4.28176588 -6 1 C-3.92446352 0.4465236 -2.15634036 0 0 0 Z " fill="#343434" transform="translate(669,487)"/>
<path d="M0 0 C0.433125 0.45375 0.86625 0.9075 1.3125 1.375 C3.10798342 3.20024334 3.10798342 3.20024334 6 5 C3 7 3 7 -0.1875 6.625 C-1.115625 6.41875 -2.04375 6.2125 -3 6 C-3 5.34 -3 4.68 -3 4 C-2.01 4 -1.02 4 0 4 C0 2.68 0 1.36 0 0 Z " fill="#C8C8C8" transform="translate(663,493)"/>
<path d="M0 0 C0.99 0.66 1.98 1.32 3 2 C2.43628586 5.26954202 1.50037734 6.82575883 -1 9 C-1 8.01 -1 7.02 -1 6 C-1.66 5.67 -2.32 5.34 -3 5 C-2.01 3.35 -1.02 1.7 0 0 Z " fill="#7FBD12" transform="translate(372,143)"/>
<path d="M0 0 C1 3 1 3 0 6 C-1.65 6.33 -3.3 6.66 -5 7 C-3.70700306 4.11562221 -2.34058637 2.12780579 0 0 Z " fill="#7CBB0C" transform="translate(396,174)"/>
<path d="M0 0 C1.65 1.65 3.3 3.3 5 5 C3.02 5.99 3.02 5.99 1 7 C0.34 6.34 -0.32 5.68 -1 5 C-0.625 2.375 -0.625 2.375 0 0 Z " fill="#80BD15" transform="translate(204,191)"/>
<path d="M0 0 C0.66 0.33 1.32 0.66 2 1 C0.37660195 2.70884005 -1.29319053 4.37446717 -3 6 C-3.66 6 -4.32 6 -5 6 C-5 5.01 -5 4.02 -5 3 C-2.625 1.25 -2.625 1.25 0 0 Z " fill="#80BD16" transform="translate(183,127)"/>
<path d="M0 0 C2.0625 0.4375 2.0625 0.4375 4 1 C2.71034824 2.37562854 1.37310707 3.70766393 0 5 C-0.66 5 -1.32 5 -2 5 C-1.125 1.125 -1.125 1.125 0 0 Z " fill="#82BD16" transform="translate(118,140)"/>
</svg>
