<svg version="1.1" id="Layer_1" xmlns="http://www.w3.org/2000/svg" xmlns:xlink="http://www.w3.org/1999/xlink" x="0px" y="0px"
	 width="100%" viewBox="0 0 200 200" enable-background="new 0 0 200 200" xml:space="preserve">
<path fill="#16216F" opacity="1.000000" stroke="none" 
	d="
M147.000000,201.000000 
	C98.000000,201.000000 49.500008,201.000000 1.000006,201.000000 
	C1.000004,134.333344 1.000004,67.666679 1.000002,1.000015 
	C67.666656,1.000010 134.333313,1.000010 200.999969,1.000005 
	C200.999985,67.666649 200.999985,134.333298 201.000000,200.999969 
	C183.166672,201.000000 165.333328,201.000000 147.000000,201.000000 
M106.338455,125.261993 
	C106.608253,125.488701 106.878044,125.715408 107.660164,126.138191 
	C108.130440,126.683617 108.600716,127.229050 109.443825,128.285416 
	C109.812737,128.483368 110.181656,128.681320 111.220131,129.047394 
	C115.707878,129.876465 120.223061,131.504242 124.677063,131.351196 
	C131.715866,131.109329 136.006714,126.155418 139.418060,120.305214 
	C139.235809,123.769554 139.053558,127.233902 138.873962,130.647705 
	C141.650238,130.647705 143.721420,130.647705 145.786530,130.647705 
	C145.786530,116.931503 145.786530,103.523972 145.786530,90.101837 
	C143.403702,90.101837 141.317886,90.101837 138.803299,90.101837 
	C138.995514,93.614517 139.172287,96.845093 139.349075,100.075668 
	C135.814362,93.544258 130.862717,89.644798 123.589233,89.021011 
	C113.946732,88.194054 107.392784,92.646263 102.674004,101.533936 
	C102.527031,102.439880 102.380058,103.345825 102.197296,104.145218 
	C102.197296,104.145218 102.308777,104.130859 101.649986,104.529350 
	C99.533546,108.456810 98.426643,112.338295 102.313896,116.113747 
	C102.313896,116.113747 102.227737,116.274506 102.277100,116.892616 
	C102.459663,117.257965 102.642227,117.623314 103.066124,118.421028 
	C103.207336,118.733131 103.243530,119.056961 103.272919,119.982040 
	C103.478813,120.318207 103.684715,120.654373 104.284767,121.438004 
	C104.516930,121.973213 104.749084,122.508430 105.085846,123.625748 
	C105.466743,124.049133 105.847641,124.472519 106.105202,124.897385 
	C106.105202,124.897385 106.116913,124.774590 106.338455,125.261993 
M157.838058,76.086906 
	C157.838058,76.086906 157.903305,76.386757 158.256699,77.000420 
	C164.807983,77.791481 165.338455,82.140602 165.074051,87.594460 
	C164.481354,99.819122 164.323837,112.064880 163.264587,124.583664 
	C162.504929,124.495667 161.745285,124.407661 160.663483,123.796822 
	C159.083954,124.059441 157.504410,124.322060 155.584900,125.313683 
	C155.447739,125.544067 155.310562,125.774445 154.696701,126.350296 
	C155.091309,127.883507 155.485916,129.416718 156.463562,130.954422 
	C156.649185,131.011993 156.834824,131.069550 157.707260,131.578308 
	C166.785278,131.419983 175.863312,131.261642 185.549545,130.728638 
	C185.222260,128.809113 184.894974,126.889603 184.476410,124.434715 
	C180.975311,124.434715 177.412491,124.434715 173.428772,124.434715 
	C173.428772,114.143890 173.502579,104.387154 173.405396,94.632118 
	C173.327866,86.849281 173.041946,79.068520 172.702652,70.504318 
	C169.148041,69.839249 165.614777,68.928215 162.029449,68.616982 
	C160.337601,68.470116 157.439514,69.043510 157.047394,70.052223 
	C156.386856,71.751465 157.287811,74.057709 157.838058,76.086906 
M18.659433,96.615929 
	C23.731386,96.555611 25.612478,98.993889 25.077173,104.035721 
	C24.676357,107.810860 24.838812,111.670937 25.047682,115.476875 
	C25.187384,118.022446 25.848194,120.539429 26.731812,123.543526 
	C30.296755,130.808502 35.371250,132.475647 47.718601,130.458298 
	C47.718601,128.567017 47.718601,126.688332 47.718601,124.434532 
	C44.553009,124.434532 41.582752,124.992691 38.981312,124.253281 
	C36.994247,123.688484 34.084618,121.571922 33.980995,119.988823 
	C33.466438,112.127525 33.746254,104.214226 33.746254,95.915306 
	C38.256355,95.915306 42.179855,95.915306 46.191135,95.915306 
	C46.191135,93.732178 46.191135,91.980438 46.191135,89.798798 
	C42.015106,89.798798 38.086601,89.798798 33.492134,89.798798 
	C33.492134,85.354485 33.492134,81.317345 33.492134,77.310410 
	C30.716982,77.310410 28.620447,77.310410 25.900749,77.310410 
	C25.900749,81.587280 25.900749,85.629501 25.900749,89.964066 
	C22.659271,89.964066 20.045031,89.964066 16.685205,89.964066 
	C17.183924,92.317413 17.597641,94.269646 18.659433,96.615929 
M62.118107,114.038223 
	C69.838997,113.694138 77.563286,113.409950 85.278877,112.972282 
	C87.850937,112.826378 90.400703,112.287430 93.291290,111.251030 
	C94.332298,98.581039 87.565651,89.881149 75.993019,89.010635 
	C63.599937,88.078392 55.003181,94.778381 53.978378,106.167999 
	C52.653393,120.893867 59.395844,130.451614 72.030830,131.758209 
	C82.926109,132.884918 92.043541,126.398102 93.140984,115.451035 
	C90.305466,116.597183 87.105728,116.871231 85.901375,118.564522 
	C81.960335,124.105469 77.737755,126.656387 71.828140,125.711029 
	C65.990593,124.777214 62.964661,121.574638 62.118107,114.038223 
z"/>
<path fill="#EFF1F7" opacity="1.000000" stroke="none" 
	d="
M61.404343,114.678726 
	C62.964661,121.574638 65.990593,124.777214 71.828140,125.711029 
	C77.737755,126.656387 81.960335,124.105469 85.901375,118.564522 
	C87.105728,116.871231 90.305466,116.597183 93.140984,115.451035 
	C92.043541,126.398102 82.926109,132.884918 72.030830,131.758209 
	C59.395844,130.451614 52.653393,120.893867 53.978378,106.167999 
	C55.003181,94.778381 63.599937,88.078392 75.993019,89.010635 
	C87.565651,89.881149 94.332298,98.581039 92.664291,111.552979 
	C82.743195,111.854118 73.449089,111.861237 64.155014,111.846031 
	C62.221085,111.842873 60.197750,111.669945 61.404343,114.678726 
M85.749008,103.264145 
	C82.849411,96.701141 78.837692,94.309769 71.784851,94.940132 
	C66.212486,95.438171 63.081551,98.436501 61.359562,105.872444 
	C68.887291,106.041771 76.414970,106.267525 83.942833,106.273636 
	C84.546989,106.274124 85.152374,104.761879 85.749008,103.264145 
z"/>
<path fill="#F3F6FA" opacity="1.000000" stroke="none" 
	d="
M102.227737,116.274506 
	C102.227737,116.274506 102.313896,116.113747 102.252602,115.597839 
	C102.230469,111.431572 102.269623,107.781212 102.308777,104.130859 
	C102.308777,104.130859 102.197296,104.145218 102.458847,103.957077 
	C102.886673,102.874519 103.052940,101.980118 103.219215,101.085709 
	C107.392784,92.646263 113.946732,88.194054 123.589233,89.021011 
	C130.862717,89.644798 135.814362,93.544258 139.349075,100.075668 
	C139.172287,96.845093 138.995514,93.614517 138.803299,90.101837 
	C141.317886,90.101837 143.403702,90.101837 145.786530,90.101837 
	C145.786530,103.523972 145.786530,116.931503 145.786530,130.647705 
	C143.721420,130.647705 141.650238,130.647705 138.873962,130.647705 
	C139.053558,127.233902 139.235809,123.769554 139.418060,120.305214 
	C136.006714,126.155418 131.715866,131.109329 124.677063,131.351196 
	C120.223061,131.504242 115.707878,129.876465 110.714737,128.689163 
	C109.829887,128.145447 109.450439,127.959961 109.070984,127.774483 
	C108.600716,127.229050 108.130440,126.683617 107.318428,125.777863 
	C106.690094,125.203217 106.403503,124.988907 106.116913,124.774590 
	C106.116913,124.774590 106.105202,124.897385 106.097321,124.614319 
	C105.720032,123.902046 105.350639,123.472847 104.981247,123.043640 
	C104.749084,122.508430 104.516930,121.973213 104.087357,120.902298 
	C103.651543,120.041908 103.413124,119.717216 103.174713,119.392532 
	C103.243530,119.056961 103.207336,118.733131 102.967285,117.883316 
	C102.654877,116.988571 102.441307,116.631538 102.227737,116.274506 
M109.365471,108.001190 
	C108.901344,120.069611 114.171463,125.876320 125.032166,125.263031 
	C133.603577,124.779022 138.588745,119.561012 138.851471,110.798233 
	C139.117828,101.915291 134.244629,96.250404 125.500587,95.278351 
	C116.884529,94.320518 111.263931,98.519104 109.365471,108.001190 
z"/>
<path fill="#F8FAFD" opacity="1.000000" stroke="none" 
	d="
M160.985626,124.319672 
	C161.745285,124.407661 162.504929,124.495667 164.019974,124.567268 
	C165.194641,123.136803 165.966141,121.725616 165.977737,120.308220 
	C166.074249,108.502487 166.030640,96.695618 166.029495,84.889091 
	C166.029221,82.137840 166.029449,79.386589 166.029449,76.386757 
	C162.849564,76.386757 160.376434,76.386757 157.903305,76.386757 
	C157.903305,76.386757 157.838058,76.086906 157.653122,75.630379 
	C157.468185,73.584160 157.468185,71.994469 157.468185,69.494102 
	C162.973236,70.135773 167.910889,70.711304 172.848541,71.286842 
	C173.041946,79.068520 173.327866,86.849281 173.405396,94.632118 
	C173.502579,104.387154 173.428772,114.143890 173.428772,124.434715 
	C177.412491,124.434715 180.975311,124.434715 184.476410,124.434715 
	C184.894974,126.889603 185.222260,128.809113 184.788681,130.838654 
	C175.025360,131.008148 166.022903,131.067627 157.020447,131.127106 
	C156.834824,131.069550 156.649185,131.011993 156.039825,130.556702 
	C155.468521,128.774246 155.320969,127.389542 155.173401,126.004829 
	C155.310562,125.774445 155.447739,125.544067 156.180511,124.969589 
	C158.179291,124.523552 159.582458,124.421616 160.985626,124.319672 
z"/>
<path fill="#F0F2F9" opacity="1.000000" stroke="none" 
	d="
M18.011356,96.221886 
	C17.597641,94.269646 17.183924,92.317413 16.685205,89.964066 
	C20.045031,89.964066 22.659271,89.964066 25.900749,89.964066 
	C25.900749,85.629501 25.900749,81.587280 25.900749,77.310410 
	C28.620447,77.310410 30.716982,77.310410 33.492134,77.310410 
	C33.492134,81.317345 33.492134,85.354485 33.492134,89.798798 
	C38.086601,89.798798 42.015106,89.798798 46.191135,89.798798 
	C46.191135,91.980438 46.191135,93.732178 46.191135,95.915306 
	C42.179855,95.915306 38.256355,95.915306 33.746254,95.915306 
	C33.746254,104.214226 33.466438,112.127525 33.980995,119.988823 
	C34.084618,121.571922 36.994247,123.688484 38.981312,124.253281 
	C41.582752,124.992691 44.553009,124.434532 47.718601,124.434532 
	C47.718601,126.688332 47.718601,128.567017 47.718601,130.458298 
	C35.371250,132.475647 30.296755,130.808502 26.486771,122.831367 
	C26.241728,113.479507 26.241728,104.839806 26.241728,96.221886 
	C22.920759,96.221886 20.466057,96.221886 18.011356,96.221886 
z"/>
<path fill="#20275D" opacity="1.000000" stroke="none" 
	d="
M158.080002,76.693588 
	C160.376434,76.386757 162.849564,76.386757 166.029449,76.386757 
	C166.029449,79.386589 166.029221,82.137840 166.029495,84.889091 
	C166.030640,96.695618 166.074249,108.502487 165.977737,120.308220 
	C165.966141,121.725616 165.194641,123.136803 164.382233,124.426460 
	C164.323837,112.064880 164.481354,99.819122 165.074051,87.594460 
	C165.338455,82.140602 164.807983,77.791481 158.080002,76.693588 
z"/>
<path fill="#21265A" opacity="1.000000" stroke="none" 
	d="
M18.335396,96.418907 
	C20.466057,96.221886 22.920759,96.221886 26.241728,96.221886 
	C26.241728,104.839806 26.241728,113.479507 26.258770,122.594208 
	C25.848194,120.539429 25.187384,118.022446 25.047682,115.476875 
	C24.838812,111.670937 24.676357,107.810860 25.077173,104.035721 
	C25.612478,98.993889 23.731386,96.555611 18.335396,96.418907 
z"/>
<path fill="#20275D" opacity="1.000000" stroke="none" 
	d="
M172.775589,70.895584 
	C167.910889,70.711304 162.973236,70.135773 157.468185,69.494102 
	C157.468185,71.994469 157.468185,73.584160 157.500092,75.641251 
	C157.287811,74.057709 156.386856,71.751465 157.047394,70.052223 
	C157.439514,69.043510 160.337601,68.470116 162.029449,68.616982 
	C165.614777,68.928215 169.148041,69.839249 172.775589,70.895584 
z"/>
<path fill="#1C215C" opacity="1.000000" stroke="none" 
	d="
M61.761223,114.358475 
	C60.197750,111.669945 62.221085,111.842873 64.155014,111.846031 
	C73.449089,111.861237 82.743195,111.854118 92.498978,111.891541 
	C90.400703,112.287430 87.850937,112.826378 85.278877,112.972282 
	C77.563286,113.409950 69.838997,113.694138 61.761223,114.358475 
z"/>
<path fill="#1C2160" opacity="1.000000" stroke="none" 
	d="
M157.363861,131.352707 
	C166.022903,131.067627 175.025360,131.008148 184.484573,131.025986 
	C175.863312,131.261642 166.785278,131.419983 157.363861,131.352707 
z"/>
<path fill="#212A61" opacity="1.000000" stroke="none" 
	d="
M101.979385,104.330109 
	C102.269623,107.781212 102.230469,111.431572 102.181778,115.540375 
	C98.426643,112.338295 99.533546,108.456810 101.979385,104.330109 
z"/>
<path fill="#20275D" opacity="1.000000" stroke="none" 
	d="
M160.824554,124.058243 
	C159.582458,124.421616 158.179291,124.523552 156.350494,124.605087 
	C157.504410,124.322060 159.083954,124.059441 160.824554,124.058243 
z"/>
<path fill="#20275D" opacity="1.000000" stroke="none" 
	d="
M154.935059,126.177567 
	C155.320969,127.389542 155.468521,128.774246 155.748291,130.554443 
	C155.485916,129.416718 155.091309,127.883507 154.935059,126.177567 
z"/>
<path fill="#212A61" opacity="1.000000" stroke="none" 
	d="
M102.946609,101.309822 
	C103.052940,101.980118 102.886673,102.874519 102.476746,104.010345 
	C102.380058,103.345825 102.527031,102.439880 102.946609,101.309822 
z"/>
<path fill="#212A61" opacity="1.000000" stroke="none" 
	d="
M105.033546,123.334694 
	C105.350639,123.472847 105.720032,123.902046 106.158981,124.613571 
	C105.847641,124.472519 105.466743,124.049133 105.033546,123.334694 
z"/>
<path fill="#212A61" opacity="1.000000" stroke="none" 
	d="
M102.252419,116.583557 
	C102.441307,116.631538 102.654877,116.988571 102.846619,117.667137 
	C102.642227,117.623314 102.459663,117.257965 102.252419,116.583557 
z"/>
<path fill="#212A61" opacity="1.000000" stroke="none" 
	d="
M103.223816,119.687286 
	C103.413124,119.717216 103.651543,120.041908 103.890289,120.678566 
	C103.684715,120.654373 103.478813,120.318207 103.223816,119.687286 
z"/>
<path fill="#212A61" opacity="1.000000" stroke="none" 
	d="
M106.227684,125.018295 
	C106.403503,124.988907 106.690094,125.203217 107.062271,125.679825 
	C106.878044,125.715408 106.608253,125.488701 106.227684,125.018295 
z"/>
<path fill="#212A61" opacity="1.000000" stroke="none" 
	d="
M109.257401,128.029953 
	C109.450439,127.959961 109.829887,128.145447 110.379951,128.605103 
	C110.181656,128.681320 109.812737,128.483368 109.257401,128.029953 
z"/>
<path fill="#1A256E" opacity="1.000000" stroke="none" 
	d="
M61.301094,104.979881 
	C63.081551,98.436501 66.212486,95.438171 71.784851,94.940132 
	C78.837692,94.309769 82.849411,96.701141 85.361649,103.708557 
	C77.083221,104.428604 69.192154,104.704247 61.301094,104.979881 
z"/>
<path fill="#1D235E" opacity="1.000000" stroke="none" 
	d="
M61.330330,105.426163 
	C69.192154,104.704247 77.083221,104.428604 85.365738,104.052795 
	C85.152374,104.761879 84.546989,106.274124 83.942833,106.273636 
	C76.414970,106.267525 68.887291,106.041771 61.330330,105.426163 
z"/>
<path fill="#1A256F" opacity="1.000000" stroke="none" 
	d="
M109.452789,107.601013 
	C111.263931,98.519104 116.884529,94.320518 125.500587,95.278351 
	C134.244629,96.250404 139.117828,101.915291 138.851471,110.798233 
	C138.588745,119.561012 133.603577,124.779022 125.032166,125.263031 
	C114.171463,125.876320 108.901344,120.069611 109.452789,107.601013 
z"/>
</svg>